Coordinates
version=1
nRows=25
nColumns=50
inDegrees=no

Units are S.I. units (second, meters, Newtons, ...)
If the header above contains a line with 'inDegrees', this indicates whether rotational values are in degrees (yes) or radians (no).

endheader
time	pelvis_tilt	pelvis_list	pelvis_rotation	pelvis_tx	pelvis_ty	pelvis_tz	hip_flexion_r	hip_adduction_r	hip_rotation_r	knee_angle_r	ankle_angle_r	subtalar_angle_r	mtp_angle_r	hip_flexion_l	hip_adduction_l	hip_rotation_l	knee_angle_l	ankle_angle_l	subtalar_angle_l	mtp_angle_l	lumbar_bending	lumbar_extension	lumbar_twist	thorax_bending	thorax_extension	thorax_twist	head_bending	head_extension	head_twist	scapula_abduction_r	scapula_elevation_r	scapula_upward_rot_r	shoulder_r_x	shoulder_r_y	shoulder_r_z	elbow_flexion_r	pro_sup_r	wrist_flexion_r	wrist_deviation_r	scapula_abduction_l	scapula_elevation_l	scapula_upward_rot_l	shoulder_l_x	shoulder_l_y	shoulder_l_z	elbow_flexion_l	pro_sup_l	wrist_flexion_l	wrist_deviation_l
0.32	-0.196842	-0.103453	0.0963673	-2.86747	1.00786	0.162572	0.882607	-0.117373	-0.599655	0.568003	-0.00856194	0.349066	0.0244346	-0.1119	-0.245795	0.030867	1.88398	-0.221185	0.0806246	0.0108886	0.136448	-0.175337	-0.0683125	0.205898	-0.12755	-0.160085	0	0	0	-1.21711	-0.0478722	0.605155	-0.156544	0.1658	-0.930341	1.14695	-0.246196	0	0.0835765	-1.25119	-0.147138	0.49143	-0.142895	-0.123012	-0.05953	1.56588	-0.120507	0	0.0835765
0.324	-0.196271	-0.100785	0.0972188	-2.83192	1.00696	0.162531	0.861734	-0.12008	-0.626462	0.580767	-0.00517965	0.349066	0.0933171	-0.0713787	-0.243038	0.041934	1.9617	-0.207388	0.0508361	0.0136612	0.128362	-0.180961	-0.0767039	0.220613	-0.138039	-0.15778	0	0	0	-1.33913	0.00411708	0.486768	-0.241044	0.308727	-0.711351	1.14529	-0.16464	0	0.0835765	-1.32803	-0.124576	0.376708	-0.0691577	-0.185499	0.0050952	1.44757	-0.283165	0	0.0835765
0.328	-0.193961	-0.105095	0.0944885	-2.79593	1.00632	0.162226	0.836416	-0.116353	-0.652254	0.595197	-0.0051996	0.349066	0.0961702	-0.0338744	-0.246941	0.0490561	2.0352	-0.190636	0.0234982	0.0162075	0.143104	-0.189852	-0.0659954	0.214619	-0.139244	-0.153932	0	0	0	-1.32004	-0.000848391	0.498176	-0.232419	0.302722	-0.683995	1.1584	-0.168345	0	0.0835765	-1.33022	-0.123776	0.35737	-0.0613909	-0.17576	-0.00427637	1.35201	-0.284148	0	0.0835765
0.332	-0.192485	-0.109763	0.0900748	-2.75975	1.00541	0.161927	0.81261	-0.111709	-0.672324	0.613233	-0.0077824	0.349066	0.11301	0.0054128	-0.250486	0.0561157	2.10566	-0.172692	-0.00114238	0.0203807	0.160676	-0.19882	-0.0690181	0.191373	-0.141905	-0.126129	0	0	0	-1.32639	0.00195743	0.487052	-0.247174	0.321699	-0.623871	1.16501	-0.177206	0	0.0835765	-1.33606	-0.122829	0.332587	-0.0486126	-0.166565	-0.00780049	1.25005	-0.298149	0	0.0835765
0.336	-0.190492	-0.115978	0.0841632	-2.7233	1.00433	0.16181	0.788296	-0.104034	-0.686685	0.631455	-0.014186	0.349066	0.115425	0.0451448	-0.255883	0.0635241	2.17245	-0.154197	-0.0213264	0.024322	0.182385	-0.206944	-0.0518173	0.179797	-0.141177	-0.121224	0	0	0	-1.29649	-0.00858841	0.51093	-0.228708	0.305678	-0.611959	1.17662	-0.178201	0	0.0835765	-1.33202	-0.126034	0.321927	-0.0450882	-0.140891	-0.0194921	1.14699	-0.295079	0	0.0835765
0.34	-0.189272	-0.123465	0.0767678	-2.68678	1.00291	0.161962	0.764942	-0.0932991	-0.693158	0.648835	-0.0213615	0.349066	0.10487	0.0867535	-0.263151	0.0720823	2.23591	-0.134752	-0.0356198	0.0295013	0.206301	-0.21381	-0.0530671	0.146644	-0.14428	-0.0870909	0	0	0	-1.27339	-0.0167415	0.526078	-0.219022	0.297063	-0.588503	1.18537	-0.176787	0	0.0835765	-1.32283	-0.130918	0.319943	-0.0461246	-0.102751	-0.0325102	1.03976	-0.292461	0	0.0835765
0.344	-0.190827	-0.132036	0.0669035	-2.65033	1.00096	0.162563	0.744735	-0.0788307	-0.691523	0.664411	-0.0331035	0.349066	0.0792988	0.132166	-0.271997	0.0826088	2.29657	-0.112815	-0.0412421	0.0294876	0.231676	-0.217956	-0.053851	0.108839	-0.146316	-0.0491918	0	0	0	-1.23518	-0.0291532	0.554391	-0.199039	0.272584	-0.581414	1.19382	-0.189359	0	0.0835765	-1.31179	-0.135125	0.324662	-0.0481117	-0.0498092	-0.0433874	0.923254	-0.328471	0	0.0835765
0.348	-0.194215	-0.138897	0.0541004	-2.61386	0.998654	0.163477	0.725636	-0.0623524	-0.680989	0.675799	-0.0473272	0.349066	0.0698254	0.180857	-0.280619	0.0920587	2.35362	-0.0928825	-0.043675	0.025988	0.254419	-0.220297	-0.030217	0.092317	-0.145912	-0.042667	0	0	0	-1.19653	-0.0404753	0.581907	-0.180141	0.249961	-0.570817	1.20151	-0.183692	0	0.0835765	-1.29328	-0.143744	0.340091	-0.052706	0.0132253	-0.0626013	0.813194	-0.307811	0	0.0835765
0.352	-0.201206	-0.140518	0.0346382	-2.57764	0.995795	0.165285	0.714931	-0.0437394	-0.652255	0.702746	0.0143311	0.349066	-0.0467159	0.234115	-0.286738	0.0960654	2.40668	-0.0776214	-0.045513	0.0241763	0.267673	-0.220286	-0.0323816	0.0528331	-0.147021	0.00243519	0	0	0	-1.15307	-0.0515352	0.612375	-0.159862	0.224215	-0.562003	1.20858	-0.170133	0	0.0835765	-1.26458	-0.156109	0.368885	-0.058174	0.0957164	-0.0920824	0.706975	-0.273607	0	0.0835765
0.356	-0.2033	-0.140376	0.0148045	-2.54049	0.993867	0.16458	0.688799	-0.0389147	-0.661254	0.730154	0.00417803	0.349066	0.105049	0.281701	-0.285307	0.0940875	2.45107	-0.0661022	-0.0505832	0.0238202	0.292569	-0.225348	-0.000862537	0.026751	-0.145899	0.00820925	0	0	0	-1.10009	-0.0655514	0.648114	-0.139079	0.190444	-0.559658	1.21523	-0.155615	0	0.0835765	-1.2196	-0.177398	0.416963	-0.0614781	0.206114	-0.14207	0.611438	-0.215649	0	0.0835765
0.36	-0.208489	-0.136508	-0.00584403	-2.5038	0.990777	0.165986	0.663888	-0.0217128	-0.628468	0.751885	0.109928	0.349066	-0.0337541	0.334913	-0.286862	0.0953101	2.4933	-0.0543667	-0.0507067	0.0235951	0.299066	-0.225941	0.0225015	0.0121258	-0.145579	0.0156485	0	0	0	-1.04616	-0.0759309	0.684845	-0.12069	0.153267	-0.55365	1.22137	-0.141321	0	0.0835765	-1.15661	-0.2	0.483294	-0.0524065	0.343524	-0.212779	0.523888	-0.158492	0	0.0835765
0.364	-0.212845	-0.131139	-0.0286942	-2.46726	0.987701	0.167362	0.643379	-0.00649791	-0.596488	0.79997	0.243016	0.349066	0.0138619	0.387971	-0.288709	0.0940761	2.53028	-0.0431944	-0.0494074	0.0165693	0.304932	-0.231256	0.0253289	-0.0264186	-0.141426	0.0509455	0	0	0	-1.0244	-0.0817837	0.688739	-0.121807	0.154473	-0.506971	1.22279	-0.0951638	0	0.0835765	-1.15778	-0.2	0.477936	-0.0109484	0.367656	-0.240018	0.452504	-0.0766938	0	0.0835765
0.368	-0.212694	-0.128205	-0.0517153	-2.43012	0.98559	0.168334	0.61284	0.00765242	-0.571134	0.825877	0.303224	0.339456	0.0138619	0.437029	-0.295014	0.089858	2.55909	-0.0366275	-0.053145	0.0124339	0.313747	-0.244027	0.0326647	-0.0561374	-0.133689	0.0805534	0	0	0	-1.05988	-0.0767313	0.64728	-0.161673	0.209492	-0.397573	1.21369	-0.060954	0	0.0835765	-1.15437	-0.2	0.458341	0.0675824	0.496692	-0.24972	0.325451	-0.160388	0	0.0835765
0.372	-0.204253	-0.124413	-0.0726389	-2.39197	0.984712	0.168208	0.568212	0.00823099	-0.558543	0.845231	0.356284	0.349066	0.0138619	0.478399	-0.29954	0.0776182	2.57814	-0.0386173	-0.068824	0.0122167	0.323193	-0.265796	0.052637	-0.0730884	-0.123696	0.0847789	0	0	0	-1.0563	-0.0802631	0.639995	-0.179803	0.226526	-0.330053	1.20946	-0.0320018	0	0.0835765	-1.17004	-0.2	0.417005	0.143938	0.506282	-0.276606	0.272372	-0.122331	0	0.0835765
0.376	-0.202066	-0.118563	-0.0956703	-2.35477	0.982974	0.170512	0.540419	0.0188236	-0.519717	0.876491	0.382887	0.3293	0.0138619	0.528437	-0.308282	0.0709754	2.59541	-0.0340778	-0.0695572	0.0117166	0.313392	-0.279246	0.0629799	-0.0718786	-0.113375	0.0935341	0	0	0	-1.06189	-0.0782627	0.628684	-0.208169	0.246185	-0.250848	1.20415	-0.0280242	0	0.0835765	-1.18835	-0.2	0.361646	0.233243	0.536344	-0.295627	0.215264	-0.128209	0	0.0835765
0.38	-0.198735	-0.116423	-0.117741	-2.31725	0.981888	0.17262	0.506637	0.0266806	-0.487106	0.891202	0.38627	0.341878	0.00472223	0.576703	-0.319659	0.065666	2.60606	-0.0278528	-0.0714823	0.0118279	0.313218	-0.291889	0.0807566	-0.0802532	-0.105884	0.101774	0	0	0	-1.05146	-0.0840749	0.629947	-0.223762	0.240466	-0.194776	1.20286	-0.0379753	0	0.0835765	-1.18504	-0.2	0.341646	0.30003	0.524313	-0.352577	0.207856	-0.0899307	0	0.0835765
0.384	-0.193955	-0.109225	-0.135876	-2.27942	0.980927	0.174677	0.466556	0.0241959	-0.455435	0.909999	0.426556	0.330879	0.0138618	0.624177	-0.323728	0.0606548	2.60982	-0.0205416	-0.0682134	0.0118923	0.300497	-0.300676	0.0699674	-0.0987928	-0.0993205	0.139064	0	0	0	-1.04389	-0.091003	0.630268	-0.240585	0.254188	-0.144402	1.21284	0.0838386	0	0.0835765	-1.19094	-0.2	0.311223	0.335084	0.452037	-0.396426	0.231026	0.0258592	0	0.0835765
0.388	-0.190547	-0.10259	-0.153074	-2.24259	0.980458	0.177458	0.426879	0.0216569	-0.429045	0.89548	0.382689	0.349066	0.0121222	0.67753	-0.330291	0.0575077	2.60852	-0.0157514	-0.0666742	0.0110326	0.280244	-0.312335	0.0682385	-0.0954429	-0.0898651	0.155228	0	0	0	-1.04548	-0.0934914	0.629371	-0.262981	0.240841	-0.0760519	1.21154	0.00709985	0	0.0835765	-1.19372	-0.2	0.281762	0.410158	0.46538	-0.437448	0.206657	-0.0370418	0	0.0835765
0.392	-0.190719	-0.09528	-0.167559	-2.20548	0.979276	0.180936	0.388866	0.0230766	-0.392918	0.912903	0.444532	0.349066	-0.000792943	0.735968	-0.337577	0.053603	2.60048	-0.0293061	-0.0761133	0.00934431	0.258162	-0.31161	0.0726288	-0.0882492	-0.0888598	0.163319	0	0	0	-1.03172	-0.0996419	0.639142	-0.270958	0.231651	-0.0320679	1.22511	0.0738674	0	0.0835765	-1.19433	-0.2	0.274439	0.438568	0.410681	-0.48936	0.217653	-0.0641419	0	0.0835765
0.396	-0.193923	-0.0853347	-0.179108	-2.16786	0.978196	0.183668	0.350363	0.0166526	-0.360976	0.910197	0.446511	0.349066	0.00593415	0.799166	-0.337688	0.0486925	2.58866	-0.0297152	-0.0890545	0.00897256	0.235984	-0.302246	0.0775724	-0.0822725	-0.0930245	0.17096	0	0	0	-1.02671	-0.105481	0.646689	-0.278768	0.21138	0.0171563	1.23739	0.0682253	0	0.0835765	-1.19497	-0.2	0.26573	0.483738	0.400187	-0.53194	0.209141	-0.0928997	0	0.0835765
0.4	-0.197199	-0.0717416	-0.187113	-2.13032	0.977346	0.185951	0.310446	0.00135525	-0.339057	0.901722	0.463645	0.349066	-0.000136069	0.860162	-0.329051	0.0428603	2.57203	-0.0215939	-0.0898546	0.00865429	0.20909	-0.292932	0.0686135	-0.0844486	-0.094298	0.191258	0	0	0	-1.02613	-0.110814	0.651428	-0.285175	0.202977	0.0643664	1.25658	0.147279	0	0.0835765	-1.20745	-0.2	0.255504	0.491593	0.321757	-0.565971	0.222405	-0.178263	0	0.0835765
0.404	-0.199814	-0.0574057	-0.191252	-2.09245	0.976206	0.188288	0.264769	-0.01353	-0.322594	0.882995	0.451551	0.349066	0.00477223	0.920059	-0.317857	0.0389038	2.55281	-0.00643688	-0.0894301	0.00818589	0.180629	-0.280872	0.0700649	-0.0790898	-0.0960206	0.195832	0	0	0	-1.01395	-0.116037	0.674052	-0.267587	0.160442	0.0903438	1.27929	0.121737	0	0.0835765	-1.1961	-0.2	0.276246	0.500653	0.291418	-0.621948	0.224551	-0.213487	0	0.0835765
0.408	-0.201362	-0.0447899	-0.192658	-2.05416	0.974895	0.190414	0.215849	-0.030534	-0.313694	0.860452	0.446305	0.349066	0.0010205	0.978842	-0.307157	0.0391878	2.53048	0.0121375	-0.0828196	0.00864947	0.156638	-0.267164	0.0529711	-0.0943527	-0.0974894	0.226078	0	0	0	-0.996701	-0.120127	0.703566	-0.240487	0.116728	0.103116	1.31022	0.154163	0	0.0835765	-1.19042	-0.2	0.30399	0.414078	0.143174	-0.69833	0.317402	-0.151365	0	0.0835765
0.412	-0.205704	-0.0250141	-0.19309	-2.01513	0.97346	0.192388	0.169195	-0.056571	-0.309468	0.83412	0.435076	0.349066	-0.0149061	1.03509	-0.290987	0.0287629	2.50212	0.0365593	-0.0788282	0.0152296	0.121741	-0.245126	0.0140584	-0.117462	-0.0972349	0.275007	0	0	0	-0.97103	-0.121372	0.744467	-0.1988	0.0444804	0.106278	1.33983	0.0498934	0	0.0835765	-1.17166	-0.2	0.342719	0.432938	0.15179	-0.765791	0.298941	-0.339439	0	0.0835765
0.416	-0.211668	-0.000452958	-0.1886	-1.97512	0.971889	0.192963	0.122158	-0.0876706	-0.315395	0.803306	0.416765	0.349066	-0.0433609	1.09017	-0.267242	0.0115088	2.46713	0.0423754	-0.0853749	0.0186026	0.0822602	-0.213201	0.0103925	-0.108701	-0.106178	0.278339	0	0	0	-0.937762	-0.122157	0.795534	-0.156881	-0.0348844	0.0902221	1.37759	-0.0263499	0	0.0835765	-1.14781	-0.2	0.381732	0.308394	0.0263974	-0.880692	0.429042	-0.131152	0	0.0835765
